<svg xmlns="http://www.w3.org/2000/svg" xmlns:xlink="http://www.w3.org/1999/xlink" width="1568" height="1523" viewBox="0 0 1568 1523">
  <defs>
    <clipPath id="clip-Artboard_3">
      <rect width="1568" height="1523"/>
    </clipPath>
  </defs>
  <g id="Artboard_3" data-name="Artboard – 3" clip-path="url(#clip-Artboard_3)">
    <rect width="1568" height="1523" fill="red"/>
    <g id="Group_3" data-name="Group 3" transform="translate(-3 -2)">
      <g id="Field" transform="translate(3 2)">
        <g id="Rectangle_21" data-name="Rectangle 21" transform="translate(8 8)" fill="#34a029" stroke="#34a029" stroke-width="1">
          <rect width="312" height="1507" stroke="none"/>
          <rect x="0.5" y="0.5" width="311" height="1506" fill="none"/>
        </g>
        <rect id="Rectangle_22" data-name="Rectangle 22" width="324" height="1507" transform="translate(318 8)" fill="#319231"/>
        <g id="Rectangle_23" data-name="Rectangle 23" transform="translate(628 8)" fill="#34a029" stroke="#34a029" stroke-width="1">
          <rect width="320" height="1507" stroke="none"/>
          <rect x="0.5" y="0.5" width="319" height="1506" fill="none"/>
        </g>
        <rect id="Rectangle_24" data-name="Rectangle 24" width="315" height="1507" transform="translate(939 8)" fill="#319231"/>
        <g id="Rectangle_25" data-name="Rectangle 25" transform="translate(1250 8)" fill="#34a029" stroke="#34a029" stroke-width="1">
          <rect width="310" height="1507" stroke="none"/>
          <rect x="0.5" y="0.5" width="309" height="1506" fill="none"/>
        </g>
        <line id="Line_16" data-name="Line 16" y1="1523" transform="translate(1564)" fill="none" stroke="#fff" stroke-width="8"/>
        <line id="Line_17" data-name="Line 17" y1="1523" transform="translate(4)" fill="none" stroke="#fff" stroke-width="8"/>
        <line id="Line_18" data-name="Line 18" x1="1563" transform="translate(4 4)" fill="none" stroke="#fff" stroke-width="8"/>
        <line id="Line_19" data-name="Line 19" x1="1561" transform="translate(0 1519)" fill="none" stroke="#fff" stroke-width="8"/>
        <g id="Ellipse_3" data-name="Ellipse 3" transform="translate(592 571)" fill="none" stroke="#fff" stroke-width="8">
          <circle cx="192" cy="192" r="192" stroke="none"/>
          <circle cx="192" cy="192" r="188" fill="none"/>
        </g>
        <line id="Line_20" data-name="Line 20" y1="1516" transform="translate(784 7)" fill="none" stroke="#fff" stroke-width="8"/>
        <g id="Ellipse_7" data-name="Ellipse 7" transform="translate(771 749)" fill="#fff" stroke="#fff" stroke-width="1">
          <circle cx="12.5" cy="12.5" r="12.5" stroke="none"/>
          <circle cx="12.5" cy="12.5" r="12" fill="none"/>
        </g>
      </g>
      <g id="Goal_lines_2" data-name="Goal lines 2" transform="translate(1164 440.653)">
        <line id="Line_10" data-name="Line 10" x1="336" transform="translate(66 0.347)" fill="none" stroke="#fff" stroke-width="8"/>
        <line id="Line_11" data-name="Line 11" y1="653" transform="translate(70 1.347)" fill="none" stroke="#fff" stroke-width="8"/>
        <line id="Line_12" data-name="Line 12" x1="336" transform="translate(66 650.347)" fill="none" stroke="#fff" stroke-width="8"/>
        <line id="Line_13" data-name="Line 13" x1="130" transform="translate(270 139.347)" fill="none" stroke="#fff" stroke-width="8"/>
        <line id="Line_14" data-name="Line 14" x1="130" transform="translate(270 510.347)" fill="none" stroke="#fff" stroke-width="8"/>
        <line id="Line_15" data-name="Line 15" y2="379" transform="translate(274 135.347)" fill="none" stroke="#fff" stroke-width="8"/>
        <g id="Ellipse_4" data-name="Ellipse 4" transform="translate(0 133.347)" fill="none" stroke="#fff" stroke-width="8">
          <circle cx="192" cy="192" r="192" stroke="none"/>
          <circle cx="192" cy="192" r="188" fill="none"/>
        </g>
        <g id="Rectangle_26" data-name="Rectangle 26" transform="translate(74 158.347)" fill="#319231" stroke="#319231" stroke-width="1">
          <rect width="30" height="339" stroke="none"/>
          <rect x="0.5" y="0.5" width="29" height="338" fill="none"/>
        </g>
        <g id="Rectangle_27" data-name="Rectangle 27" transform="translate(89 97.347)" fill="#34a029" stroke="#34a029" stroke-width="1">
          <rect width="181" height="464" stroke="none"/>
          <rect x="0.5" y="0.5" width="180" height="463" fill="none"/>
        </g>
        <g id="Rectangle_28" data-name="Rectangle 28" transform="translate(278 143.347)" fill="#34a029" stroke="#34a029" stroke-width="1">
          <rect width="106" height="354" stroke="none"/>
          <rect x="0.5" y="0.5" width="105" height="353" fill="none"/>
        </g>
        <g id="Ellipse_6" data-name="Ellipse 6" transform="translate(174 317.347)" fill="#fff" stroke="#fff" stroke-width="1">
          <circle cx="7" cy="7" r="7" stroke="none"/>
          <circle cx="7" cy="7" r="6.5" fill="none"/>
        </g>
      </g>
      <g id="Goal_lines" data-name="Goal lines" transform="translate(9 440.653)">
        <line id="Line_10-2" data-name="Line 10" x2="336" transform="translate(0 0.347)" fill="none" stroke="#fff" stroke-width="8"/>
        <line id="Line_11-2" data-name="Line 11" y1="653" transform="translate(332 1.347)" fill="none" stroke="#fff" stroke-width="8"/>
        <line id="Line_12-2" data-name="Line 12" x2="336" transform="translate(0 650.347)" fill="none" stroke="#fff" stroke-width="8"/>
        <line id="Line_13-2" data-name="Line 13" x2="130" transform="translate(2 139.347)" fill="none" stroke="#fff" stroke-width="8"/>
        <line id="Line_14-2" data-name="Line 14" x2="130" transform="translate(2 510.347)" fill="none" stroke="#fff" stroke-width="8"/>
        <line id="Line_15-2" data-name="Line 15" y2="379" transform="translate(128 135.347)" fill="none" stroke="#fff" stroke-width="8"/>
        <g id="Ellipse_4-2" data-name="Ellipse 4" transform="translate(18 133.347)" fill="none" stroke="#fff" stroke-width="8">
          <circle cx="192" cy="192" r="192" stroke="none"/>
          <circle cx="192" cy="192" r="188" fill="none"/>
        </g>
        <g id="Rectangle_26-2" data-name="Rectangle 26" transform="translate(298 158.347)" fill="#319231" stroke="#319231" stroke-width="1">
          <rect width="30" height="339" stroke="none"/>
          <rect x="0.5" y="0.5" width="29" height="338" fill="none"/>
        </g>
        <g id="Rectangle_27-2" data-name="Rectangle 27" transform="translate(132 97.347)" fill="#34a029" stroke="#34a029" stroke-width="1">
          <rect width="181" height="464" stroke="none"/>
          <rect x="0.5" y="0.5" width="180" height="463" fill="none"/>
        </g>
        <g id="Rectangle_28-2" data-name="Rectangle 28" transform="translate(18 143.347)" fill="#34a029" stroke="#34a029" stroke-width="1">
          <rect width="106" height="354" stroke="none"/>
          <rect x="0.5" y="0.5" width="105" height="353" fill="none"/>
        </g>
        <g id="Ellipse_5" data-name="Ellipse 5" transform="translate(215 317.5)" fill="#fff" stroke="#fff" stroke-width="1">
          <circle cx="7" cy="7" r="7" stroke="none"/>
          <circle cx="7" cy="7" r="6.5" fill="none"/>
        </g>
      </g>
    </g>
  </g>
</svg>
