<svg xmlns="http://www.w3.org/2000/svg" xmlns:xlink="http://www.w3.org/1999/xlink" width="1568" height="1096" viewBox="0 0 1568 1096">
  <defs>
    <clipPath id="clip-Artboard_1">
      <rect width="1568" height="1096"/>
    </clipPath>
  </defs>
  <g id="Artboard_1" data-name="Artboard – 1" clip-path="url(#clip-Artboard_1)">
    <rect width="1568" height="1096" fill="red"/>
    <g id="Group_3" data-name="Group 3" transform="translate(-3 -2)">
      <g id="Field" transform="translate(11 10)">
        <g id="Rectangle_21" data-name="Rectangle 21" fill="#34a029" stroke="#34a029" stroke-width="1">
          <rect width="312" height="1080" stroke="none"/>
          <rect x="0.5" y="0.5" width="311" height="1079" fill="none"/>
        </g>
        <rect id="Rectangle_22" data-name="Rectangle 22" width="324" height="1080" transform="translate(310)" fill="#319231"/>
        <g id="Rectangle_23" data-name="Rectangle 23" transform="translate(620)" fill="#34a029" stroke="#34a029" stroke-width="1">
          <rect width="320" height="1080" stroke="none"/>
          <rect x="0.5" y="0.5" width="319" height="1079" fill="none"/>
        </g>
        <rect id="Rectangle_24" data-name="Rectangle 24" width="315" height="1080" transform="translate(931)" fill="#319231"/>
        <g id="Rectangle_25" data-name="Rectangle 25" transform="translate(1242)" fill="#34a029" stroke="#34a029" stroke-width="1">
          <rect width="310" height="1080" stroke="none"/>
          <rect x="0.5" y="0.5" width="309" height="1079" fill="none"/>
        </g>
        <line id="Line_16" data-name="Line 16" y1="1096" transform="translate(1556 -8)" fill="none" stroke="#fff" stroke-width="8"/>
        <line id="Line_17" data-name="Line 17" y1="1096" transform="translate(-4 -8)" fill="none" stroke="#fff" stroke-width="8"/>
        <line id="Line_18" data-name="Line 18" x1="1563" transform="translate(-4 -4)" fill="none" stroke="#fff" stroke-width="8"/>
        <line id="Line_19" data-name="Line 19" x1="1561" transform="translate(-8 1084)" fill="none" stroke="#fff" stroke-width="8"/>
        <g id="Ellipse_3" data-name="Ellipse 3" transform="translate(584 349)" fill="none" stroke="#fff" stroke-width="8">
          <circle cx="192" cy="192" r="192" stroke="none"/>
          <circle cx="192" cy="192" r="188" fill="none"/>
        </g>
        <line id="Line_20" data-name="Line 20" y1="1089" transform="translate(776 -1)" fill="none" stroke="#fff" stroke-width="8"/>
        <g id="Ellipse_7" data-name="Ellipse 7" transform="translate(763 527)" fill="#fff" stroke="#fff" stroke-width="1">
          <circle cx="12.5" cy="12.5" r="12.5" stroke="none"/>
          <circle cx="12.5" cy="12.5" r="12" fill="none"/>
        </g>
      </g>
      <g id="Goal_lines_2" data-name="Goal lines 2" transform="translate(1164 225)">
        <line id="Line_10" data-name="Line 10" x1="336" transform="translate(66)" fill="none" stroke="#fff" stroke-width="8"/>
        <line id="Line_11" data-name="Line 11" y1="653" transform="translate(70 1)" fill="none" stroke="#fff" stroke-width="8"/>
        <line id="Line_12" data-name="Line 12" x1="336" transform="translate(66 650)" fill="none" stroke="#fff" stroke-width="8"/>
        <line id="Line_13" data-name="Line 13" x1="130" transform="translate(270 139)" fill="none" stroke="#fff" stroke-width="8"/>
        <line id="Line_14" data-name="Line 14" x1="130" transform="translate(270 510)" fill="none" stroke="#fff" stroke-width="8"/>
        <line id="Line_15" data-name="Line 15" y2="379" transform="translate(274 135)" fill="none" stroke="#fff" stroke-width="8"/>
        <g id="Ellipse_4" data-name="Ellipse 4" transform="translate(0 133)" fill="none" stroke="#fff" stroke-width="8">
          <circle cx="192" cy="192" r="192" stroke="none"/>
          <circle cx="192" cy="192" r="188" fill="none"/>
        </g>
        <g id="Rectangle_26" data-name="Rectangle 26" transform="translate(74 158)" fill="#319231" stroke="#319231" stroke-width="1">
          <rect width="30" height="339" stroke="none"/>
          <rect x="0.5" y="0.5" width="29" height="338" fill="none"/>
        </g>
        <g id="Rectangle_27" data-name="Rectangle 27" transform="translate(89 97)" fill="#34a029" stroke="#34a029" stroke-width="1">
          <rect width="181" height="464" stroke="none"/>
          <rect x="0.5" y="0.5" width="180" height="463" fill="none"/>
        </g>
        <g id="Rectangle_28" data-name="Rectangle 28" transform="translate(278 143)" fill="#34a029" stroke="#34a029" stroke-width="1">
          <rect width="106" height="354" stroke="none"/>
          <rect x="0.5" y="0.5" width="105" height="353" fill="none"/>
        </g>
        <g id="Ellipse_6" data-name="Ellipse 6" transform="translate(174 317)" fill="#fff" stroke="#fff" stroke-width="1">
          <circle cx="7" cy="7" r="7" stroke="none"/>
          <circle cx="7" cy="7" r="6.5" fill="none"/>
        </g>
      </g>
      <g id="Goal_lines" data-name="Goal lines" transform="translate(11 10)">
        <line id="Line_10-2" data-name="Line 10" x2="336" transform="translate(-2 215)" fill="none" stroke="#fff" stroke-width="8"/>
        <line id="Line_11-2" data-name="Line 11" y1="653" transform="translate(330 216)" fill="none" stroke="#fff" stroke-width="8"/>
        <line id="Line_12-2" data-name="Line 12" x2="336" transform="translate(-2 865)" fill="none" stroke="#fff" stroke-width="8"/>
        <line id="Line_13-2" data-name="Line 13" x2="130" transform="translate(0 354)" fill="none" stroke="#fff" stroke-width="8"/>
        <line id="Line_14-2" data-name="Line 14" x2="130" transform="translate(0 725)" fill="none" stroke="#fff" stroke-width="8"/>
        <line id="Line_15-2" data-name="Line 15" y2="379" transform="translate(126 350)" fill="none" stroke="#fff" stroke-width="8"/>
        <g id="Ellipse_4-2" data-name="Ellipse 4" transform="translate(16 348)" fill="none" stroke="#fff" stroke-width="8">
          <circle cx="192" cy="192" r="192" stroke="none"/>
          <circle cx="192" cy="192" r="188" fill="none"/>
        </g>
        <g id="Rectangle_26-2" data-name="Rectangle 26" transform="translate(296 373)" fill="#319231" stroke="#319231" stroke-width="1">
          <rect width="30" height="339" stroke="none"/>
          <rect x="0.5" y="0.5" width="29" height="338" fill="none"/>
        </g>
        <g id="Rectangle_27-2" data-name="Rectangle 27" transform="translate(130 312)" fill="#34a029" stroke="#34a029" stroke-width="1">
          <rect width="181" height="464" stroke="none"/>
          <rect x="0.5" y="0.5" width="180" height="463" fill="none"/>
        </g>
        <g id="Rectangle_28-2" data-name="Rectangle 28" transform="translate(16 358)" fill="#34a029" stroke="#34a029" stroke-width="1">
          <rect width="106" height="354" stroke="none"/>
          <rect x="0.5" y="0.5" width="105" height="353" fill="none"/>
        </g>
        <g id="Ellipse_5" data-name="Ellipse 5" transform="translate(213 532.5)" fill="#fff" stroke="#fff" stroke-width="1">
          <circle cx="7" cy="7" r="7" stroke="none"/>
          <circle cx="7" cy="7" r="6.5" fill="none"/>
        </g>
      </g>
    </g>
  </g>
</svg>
